<svg width="48" height="48" viewBox="0 0 48 48" fill="none" xmlns="http://www.w3.org/2000/svg">
<rect width="48" height="48" rx="24" fill="#1152D4" fill-opacity="0.1"/>
<path d="M25.1 34H22.5C22.5 34 22.6667 33.8958 23 33.6875C23.3333 33.4792 23.6958 33.2458 24.0875 32.9875C24.4792 32.7292 24.8417 32.4958 25.175 32.2875C25.5083 32.0792 25.675 31.975 25.675 31.975C27.025 31.875 28.2708 31.4667 29.4125 30.75C30.5542 30.0333 31.4583 29.075 32.125 27.875C30.6917 27.7417 29.3333 27.3792 28.05 26.7875C26.7667 26.1958 25.6167 25.3917 24.6 24.375C23.5833 23.3583 22.775 22.2083 22.175 20.925C21.575 19.6417 21.2167 18.2833 21.1 16.85C19.8167 17.5667 18.8125 18.5542 18.0875 19.8125C17.3625 21.0708 17 22.4333 17 23.9C17 23.9333 17 23.9833 17 24.05C17 24.1167 17 24.1667 17 24.2C17 24.2 16.9 24.2458 16.7 24.3375C16.5 24.4292 16.2792 24.525 16.0375 24.625C15.7958 24.725 15.575 24.8208 15.375 24.9125C15.175 25.0042 15.075 25.05 15.075 25.05C15.0417 24.8667 15.0208 24.675 15.0125 24.475C15.0042 24.275 15 24.0833 15 23.9C15 21.4667 15.775 19.3208 17.325 17.4625C18.875 15.6042 20.85 14.45 23.25 14C22.95 15.65 23.0417 17.2625 23.525 18.8375C24.0083 20.4125 24.8417 21.7917 26.025 22.975C27.2083 24.1583 28.5875 24.9917 30.1625 25.475C31.7375 25.9583 33.35 26.05 35 25.75C34.5667 28.15 33.4167 30.125 31.55 31.675C29.6833 33.225 27.5333 34 25.1 34ZM18 32H22.5C22.9167 32 23.2708 31.8542 23.5625 31.5625C23.8542 31.2708 24 30.9167 24 30.5C24 30.0833 23.8583 29.7292 23.575 29.4375C23.2917 29.1458 22.95 29 22.55 29H21.25L20.75 27.8C20.5167 27.25 20.15 26.8125 19.65 26.4875C19.15 26.1625 18.6 26 18 26C17.1667 26 16.4583 26.2875 15.875 26.8625C15.2917 27.4375 15 28.15 15 29C15 29.8333 15.2917 30.5417 15.875 31.125C16.4583 31.7083 17.1667 32 18 32ZM18 34C16.6167 34 15.4375 33.5125 14.4625 32.5375C13.4875 31.5625 13 30.3833 13 29C13 27.6167 13.4875 26.4375 14.4625 25.4625C15.4375 24.4875 16.6167 24 18 24C19 24 19.9125 24.2708 20.7375 24.8125C21.5625 25.3542 22.175 26.0833 22.575 27C23.525 27.0333 24.3333 27.3875 25 28.0625C25.6667 28.7375 26 29.55 26 30.5C26 31.4667 25.6583 32.2917 24.975 32.975C24.2917 33.6583 23.4667 34 22.5 34H18Z" fill="#F1F5F9"/>
</svg>
