<svg width="48" height="48" viewBox="0 0 48 48" fill="none" xmlns="http://www.w3.org/2000/svg">
<rect width="48" height="48" rx="24" fill="#1152D4" fill-opacity="0.1"/>
<path d="M34 34L30 30H20C19.45 30 18.9792 29.8042 18.5875 29.4125C18.1958 29.0208 18 28.55 18 28V27H29C29.55 27 30.0208 26.8042 30.4125 26.4125C30.8042 26.0208 31 25.55 31 25V18H32C32.55 18 33.0208 18.1958 33.4125 18.5875C33.8042 18.9792 34 19.45 34 20V34ZM16 24.175L17.175 23H27V16H16V24.175ZM14 29V16C14 15.45 14.1958 14.9792 14.5875 14.5875C14.9792 14.1958 15.45 14 16 14H27C27.55 14 28.0208 14.1958 28.4125 14.5875C28.8042 14.9792 29 15.45 29 16V23C29 23.55 28.8042 24.0208 28.4125 24.4125C28.0208 24.8042 27.55 25 27 25H18L14 29ZM16 23V16V23Z" fill="#F1F5F9"/>
</svg>
