<svg width="20" height="20" viewBox="0 0 20 20" fill="none" xmlns="http://www.w3.org/2000/svg">
<path d="M6 12H12C12.2833 12 12.5208 11.9042 12.7125 11.7125C12.9042 11.5208 13 11.2833 13 11V9L15 11V5L13 7V5C13 4.71667 12.9042 4.47917 12.7125 4.2875C12.5208 4.09583 12.2833 4 12 4H6C5.71667 4 5.47917 4.09583 5.2875 4.2875C5.09583 4.47917 5 4.71667 5 5V11C5 11.2833 5.09583 11.5208 5.2875 11.7125C5.47917 11.9042 5.71667 12 6 12ZM0 20V2C0 1.45 0.195833 0.979167 0.5875 0.5875C0.979167 0.195833 1.45 0 2 0H18C18.55 0 19.0208 0.195833 19.4125 0.5875C19.8042 0.979167 20 1.45 20 2V14C20 14.55 19.8042 15.0208 19.4125 15.4125C19.0208 15.8042 18.55 16 18 16H4L0 20ZM3.15 14H18V2H2V15.125L3.15 14ZM2 14V2V14Z" fill="#1152D4"/>
</svg>
