<svg width="25" height="25" viewBox="0 0 25 25" fill="none" xmlns="http://www.w3.org/2000/svg">
<path d="M9.98427 18.425L18.0984 11.9162L8.80833 7.23666L9.98427 18.425ZM13.8108 24.9357C12.0911 25.1165 10.4407 24.96 8.85959 24.4663C7.27849 23.9726 5.86972 23.2252 4.63329 22.2239C3.39686 21.2227 2.37283 20.0001 1.56121 18.5562C0.749584 17.1123 0.253399 15.5305 0.0726523 13.8108C-0.108094 12.0911 0.0483754 10.4407 0.542061 8.85961C1.03575 7.27851 1.78321 5.86974 2.78445 4.63331C3.7857 3.39688 5.00827 2.37285 6.45218 1.56123C7.89608 0.749604 9.47788 0.253419 11.1976 0.0726724C12.9173 -0.108074 14.5677 0.0483956 16.1488 0.542081C17.7299 1.03577 19.1386 1.78323 20.3751 2.78447C21.6115 3.78572 22.6355 5.00829 23.4471 6.4522C24.2588 7.8961 24.755 9.4779 24.9357 11.1976C25.1164 12.9173 24.96 14.5677 24.4663 16.1488C23.9726 17.7299 23.2251 19.1387 22.2239 20.3751C21.2227 21.6115 20.0001 22.6355 18.5562 23.4472C17.1123 24.2588 15.5305 24.755 13.8108 24.9357ZM13.5495 22.4494C16.3258 22.1576 18.5762 20.947 20.3006 18.8176C22.0249 16.6882 22.7412 14.2353 22.4494 11.4589C22.1576 8.68254 20.947 6.43217 18.8176 4.70781C16.6882 2.98345 14.2353 2.26717 11.4589 2.55898C8.68252 2.85078 6.43215 4.06139 4.70779 6.1908C2.98343 8.32021 2.26715 10.7731 2.55896 13.5495C2.85076 16.3259 4.06137 18.5762 6.19078 20.3006C8.32019 22.0249 10.7731 22.7412 13.5495 22.4494Z" fill="white"/>
</svg>
